<svg xmlns="http://www.w3.org/2000/svg" xmlns:xlink="http://www.w3.org/1999/xlink" xmlns:lucid="lucid" width="1760" height="1360"><g transform="translate(0 0)" lucid:page-tab-id="0_0"><path d="M0 0h1760v1360H0z" fill="#fff"/><path d="M1074.63 617.8a8 8 0 0 1 8-8h170.27a8 8 0 0 1 8 8v104.4a8 8 0 0 1-8 8h-170.27a8 8 0 0 1-8-8z" stroke="#333" fill="#fff"/><use xlink:href="#a" transform="matrix(1,0,0,1,1086.626865671642,621.795918367347) translate(41.55 52.1)"/><path d="M1073.03 754.3c26.6 0 48.16 21.55 48.16 48.15 0 26.6-21.57 48.16-48.17 48.16H983.1c-26.6 0-48.18-21.55-48.18-48.15 0-26.6 21.57-48.16 48.17-48.16z" stroke="#333" fill="#fff"/><use xlink:href="#b" transform="matrix(1,0,0,1,939.9253731343285,759.2857142857143) translate(39.574999999999996 47.1)"/><path d="M1352.43 754.3c26.6 0 48.17 21.55 48.17 48.15 0 26.6-21.57 48.16-48.17 48.16h-89.94c-26.6 0-48.17-21.55-48.17-48.15 0-26.6 21.56-48.16 48.16-48.16z" stroke="#333" fill="#fff"/><use xlink:href="#c" transform="matrix(1,0,0,1,1219.3283582089553,759.2857142857143) translate(71.9 47.1)"/><path d="M241.12 617.8a8 8 0 0 1 8-8H396.1a8 8 0 0 1 8 8v104.4a8 8 0 0 1-8 8H249.12a8 8 0 0 1-8-8z" stroke="#333" fill="#fff"/><use xlink:href="#d" transform="matrix(1,0,0,1,253.1193332941874,621.795918367347) translate(38.5 52.1)"/><path d="M771.94 213.36a8 8 0 0 1 8-8h181.9a8 8 0 0 1 8 8v118.58a8 8 0 0 1-8 8h-181.9a8 8 0 0 1-8-8z" stroke="#333" fill="#fff"/><use xlink:href="#e" transform="matrix(1,0,0,1,783.9402985074627,217.36265138697058) translate(48.55 59.1)"/><path d="M1049.75 359.07c26.6 0 48.16 21.56 48.16 48.16 0 26.6-21.55 48.17-48.15 48.17H959.8c-26.6 0-48.16-21.57-48.16-48.17s21.57-48.16 48.16-48.16z" stroke="#333" fill="#fff"/><use xlink:href="#f" transform="matrix(1,0,0,1,916.641791044776,364.07061559340576) translate(64.55 47.1)"/><path d="M1026.46 80c26.6 0 48.17 21.56 48.17 48.16 0 26.6-21.57 48.17-48.17 48.17h-89.94c-26.6 0-48.16-21.57-48.16-48.17S909.92 80 936.52 80z" stroke="#333" fill="#fff"/><use xlink:href="#g" transform="matrix(1,0,0,1,893.358208955224,85) translate(31.549999999999997 47.1)"/><path d="M258.1 489.4c26.6 0 48.17 21.55 48.17 48.15 0 26.6-21.56 48.16-48.16 48.16h-89.94c-26.6 0-48.16-21.55-48.16-48.15 0-26.6 21.56-48.16 48.16-48.16z" stroke="#333" fill="#fff"/><use xlink:href="#h" transform="matrix(1,0,0,1,125,494.3877551020408) translate(52.55 47.1)"/><path d="M467.66 489.4c26.6 0 48.16 21.55 48.16 48.15 0 26.6-21.56 48.16-48.16 48.16h-89.94c-26.6 0-48.17-21.55-48.17-48.15 0-26.6 21.57-48.16 48.17-48.16z" stroke="#333" fill="#fff"/><use xlink:href="#i" transform="matrix(1,0,0,1,334.55223880597015,494.3877551020408) translate(45.05 47.1)"/><path d="M467.66 754.3c26.6 0 48.16 21.55 48.16 48.15 0 26.6-21.56 48.16-48.16 48.16h-89.94c-26.6 0-48.17-21.55-48.17-48.15 0-26.6 21.57-48.16 48.17-48.16z" stroke="#333" fill="#fff"/><use xlink:href="#j" transform="matrix(1,0,0,1,334.55223880597015,759.2857142857143) translate(36.05 47.1)"/><path d="M258.1 754.3c26.6 0 48.17 21.55 48.17 48.15 0 26.6-21.56 48.16-48.16 48.16h-89.94c-26.6 0-48.16-21.55-48.16-48.15 0-26.6 21.56-48.16 48.16-48.16z" stroke="#333" fill="#fff"/><use xlink:href="#k" transform="matrix(1,0,0,1,125,759.2857142857143) translate(48.12499999999999 47.1)"/><path d="M1400.6 208.4a8 8 0 0 1 8-8h170.27a8 8 0 0 1 8 8v128.5a8 8 0 0 1-8 8H1408.6a8 8 0 0 1-8-8z" stroke="#333" fill="#fff"/><use xlink:href="#l" transform="matrix(1,0,0,1,1412.597014925373,212.4081632653061) translate(39.525 64.10000000000001)"/><path d="M1445.57 89.9c26.6 0 48.16 21.57 48.16 48.17s-21.56 48.17-48.16 48.17h-89.94c-26.6 0-48.17-21.57-48.17-48.17s21.57-48.16 48.17-48.16z" stroke="#333" fill="#fff"/><use xlink:href="#g" transform="matrix(1,0,0,1,1312.4626865671644,94.90897624332894) translate(31.549999999999997 47.1)"/><path d="M793.63 359.07c26.6 0 48.16 21.56 48.16 48.16 0 26.6-21.57 48.17-48.17 48.17H703.7c-26.6 0-48.18-21.57-48.18-48.17s21.57-48.16 48.17-48.16z" stroke="#333" fill="#fff"/><use xlink:href="#i" transform="matrix(1,0,0,1,660.5223880597014,364.07061559340576) translate(45.05 47.1)"/><path d="M1631.84 359.07c26.6 0 48.16 21.56 48.16 48.16 0 26.6-21.56 48.17-48.16 48.17h-89.94c-26.6 0-48.17-21.57-48.17-48.17s21.57-48.16 48.16-48.16z" stroke="#333" fill="#fff"/><use xlink:href="#i" transform="matrix(1,0,0,1,1498.7313432835822,364.07061559340576) translate(45.05 47.1)"/><path d="M816.9 80c26.6 0 48.18 21.56 48.18 48.16 0 26.6-21.57 48.17-48.17 48.17h-89.93c-26.6 0-48.16-21.57-48.16-48.17S700.38 80 726.98 80z" stroke="#333" fill="#fff"/><use xlink:href="#h" transform="matrix(1,0,0,1,683.8059701492537,85) translate(52.55 47.1)"/><path d="M1631.84 89.9c26.6 0 48.16 21.57 48.16 48.17s-21.56 48.17-48.16 48.17h-89.94c-26.6 0-48.17-21.57-48.17-48.17s21.57-48.16 48.16-48.16z" stroke="#333" fill="#fff"/><use xlink:href="#h" transform="matrix(1,0,0,1,1498.7313432835822,94.90897624332894) translate(52.55 47.1)"/><path d="M1445.57 359.07c26.6 0 48.16 21.56 48.16 48.16 0 26.6-21.56 48.17-48.16 48.17h-89.94c-26.6 0-48.17-21.57-48.17-48.17s21.57-48.16 48.17-48.16z" stroke="#333" fill="#fff"/><use xlink:href="#m" transform="matrix(1,0,0,1,1312.4626865671644,364.07061559340576) translate(43.05 47.1)"/><path d="M1161.44 205.3a10.3 10.3 0 0 1 12.64 0l80.5 62.45a6.2 6.2 0 0 1 0 9.8l-80.5 62.44a10.3 10.3 0 0 1-12.64 0l-80.5-62.44a6.2 6.2 0 0 1 0-9.8z" stroke="#333" fill="#fff"/><use xlink:href="#n" transform="matrix(1,0,0,1,1079.626865671642,205.4081632653061) translate(60.05 71.10000000000001)"/><use xlink:href="#o" transform="matrix(1,0,0,1,1079.626865671642,205.4081632653061) translate(93 71.10000000000001)"/><path d="M1399.6 272.65h-141.62" stroke="#333" fill="none"/><path d="M1400.1 273.13h-.52v-.95h.52zM1258 273.13h-.57l.05-.48-.05-.47h.56z" stroke="#333" stroke-width=".05" fill="#333"/><path d="M970.85 272.65h106.69" stroke="#333" fill="none"/><path d="M970.86 273.13h-.5v-.95h.5zM1078.04 272.65l.05.48h-.57v-.95h.56z" stroke="#333" stroke-width=".05" fill="#333"/><path d="M656.32 929.23a8 8 0 0 1 8-8h147a8 8 0 0 1 8 8v104.4a8 8 0 0 1-8 8h-147a8 8 0 0 1-8-8z" stroke="#333" fill="#fff"/><use xlink:href="#p" transform="matrix(1,0,0,1,668.3232434901603,933.2250201812466) translate(38.025 52.1)"/><path d="M910.05 1054.5c26.6 0 48.16 21.55 48.16 48.15 0 26.6-21.55 48.17-48.15 48.17H820.1c-26.6 0-48.16-21.57-48.16-48.17s21.56-48.16 48.16-48.16z" stroke="#333" fill="#fff"/><use xlink:href="#q" transform="matrix(1,0,0,1,776.9402985074626,1059.4900611110315) translate(43.55 47.1)"/><path d="M630.64 1054.5c26.6 0 48.17 21.55 48.17 48.15 0 26.6-21.56 48.17-48.16 48.17H540.7c-26.6 0-48.16-21.57-48.16-48.17s21.56-48.16 48.16-48.16z" stroke="#333" fill="#fff"/><use xlink:href="#r" transform="matrix(1,0,0,1,497.5373134328358,1059.4900611110315) translate(61.599999999999994 47.1)"/><path d="M770.34 1163.67c26.6 0 48.17 21.57 48.17 48.17S796.95 1260 770.35 1260H680.4c-26.6 0-48.16-21.56-48.16-48.16 0-26.6 21.56-48.17 48.16-48.17z" stroke="#333" fill="#fff"/><use xlink:href="#s" transform="matrix(1,0,0,1,637.2388059701493,1168.6734693877552) translate(69.525 47.1)"/><path d="M1118.28 981.43h37.48a12 12 0 0 0 12-12V731.2" stroke="#333" fill="none"/><path d="M1118.3 981.9h-.57l.05-.47-.05-.48h.56zM1168.24 731.22h-.95v-.52h.94z" stroke="#333" stroke-width=".05" fill="#333"/><path d="M820.3 981.43h117.54" stroke="#333" fill="none"/><path d="M820.32 981.9h-.5v-.95h.5zM938.34 981.43l.05.47h-.57v-.95h.56z" stroke="#333" stroke-width=".05" fill="#333"/><path d="M407.02 981.43h-72.4a12 12 0 0 1-12-12V731.2" stroke="#333" fill="none"/><path d="M407.52 981.43l.05.47H407v-.95h.56zM323.1 731.22h-.96v-.52h.95z" stroke="#333" stroke-width=".05" fill="#333"/><path d="M655.32 981.43h-67.86" stroke="#333" fill="none"/><path d="M655.82 981.9h-.5v-.95h.5zM587.47 981.9h-.56l.06-.47-.05-.48h.57z" stroke="#333" stroke-width=".05" fill="#333"/><path d="M585.67 394.8V284.65a12 12 0 0 1 12-12h173.27" stroke="#333" fill="none"/><path d="M586.15 395.33l-.48-.03-.47.03v-.54h.95zM771.44 273.13h-.5v-.95h.5z" stroke="#333" stroke-width=".05" fill="#333"/><path d="M737.82 920.23V790.37a12 12 0 0 0-12-12H597.67a12 12 0 0 1-12-12V535.8" stroke="#333" fill="none"/><path d="M738.3 920.73h-.96v-.52h.95zM585.67 535.3l.48-.02v.55h-.95v-.55z" stroke="#333" stroke-width=".05" fill="#333"/><path d="M1167.76 608.8v-69.16a12 12 0 0 0-12-12h-107.54" stroke="#333" fill="none"/><path d="M1168.24 609.3h-.95v-.52h.94zM1048.24 528.12h-.56l.04-.48-.04-.47h.56z" stroke="#333" stroke-width=".05" fill="#333"/><path d="M1073.63 670H838.87" stroke="#333" fill="none"/><path d="M1074.13 670.48h-.52v-.96h.53zM838.9 670.48h-.57l.04-.48-.04-.48h.56z" stroke="#333" stroke-width=".05" fill="#333"/><path d="M658.44 670H405.1" stroke="#333" fill="none"/><path d="M658.94 670l.04.48h-.55v-.96h.55zM405.12 670.48h-.52v-.96h.52z" stroke="#333" stroke-width=".05" fill="#333"/><path d="M963.34 474.2a11.23 11.23 0 0 1 13.03 0l68.46 48.8a5.7 5.7 0 0 1 0 9.28l-68.46 48.8a11.23 11.23 0 0 1-13.03 0l-68.47-48.8a5.7 5.7 0 0 1 0-9.28z" stroke="#333" fill="#fff"/><use xlink:href="#t" transform="matrix(1,0,0,1,893.3582089552239,474.56980261538297) translate(62.025 57.1)"/><path d="M891.48 527.64h-8.58a12 12 0 0 1-12-12v-174.7" stroke="#333" fill="none"/><path d="M891.98 527.64l.04.48h-.55v-.95h.55zM871.37 340.96h-.95v-.52h.95z" stroke="#333" stroke-width=".05" fill="#333"/><path d="M742.34 602.66a10.3 10.3 0 0 1 12.64 0l80.5 62.44a6.2 6.2 0 0 1 0 9.8l-80.5 62.44a10.3 10.3 0 0 1-12.64 0l-80.5-62.44a6.2 6.2 0 0 1 0-9.8z" stroke="#333" fill="#fff"/><use xlink:href="#u" transform="matrix(1,0,0,1,660.5223880597015,602.7551020408164) translate(19.075000000000003 71.10000000000001)"/><use xlink:href="#v" transform="matrix(1,0,0,1,660.5223880597015,602.7551020408164) translate(60.925 71.10000000000001)"/><use xlink:href="#w" transform="matrix(1,0,0,1,660.5223880597015,602.7551020408164) translate(128.925 71.10000000000001)"/><path d="M579.35 397.96a10.3 10.3 0 0 1 12.64 0l80.5 62.44a6.2 6.2 0 0 1 0 9.8L592 532.66a10.3 10.3 0 0 1-12.65 0l-80.5-62.44a6.2 6.2 0 0 1 0-9.8z" stroke="#333" fill="#fff"/><use xlink:href="#x" transform="matrix(1,0,0,1,497.53731343283584,398.0612244897959) translate(38.05 71.10000000000001)"/><path d="M1021.74 914.1a10.3 10.3 0 0 1 12.64 0l80.5 62.43a6.2 6.2 0 0 1 0 9.8l-80.5 62.44a10.3 10.3 0 0 1-12.64 0l-80.5-62.44a6.2 6.2 0 0 1 0-9.8z" stroke="#333" fill="#fff"/><use xlink:href="#y" transform="matrix(1,0,0,1,939.9253731343285,914.184203854716) translate(76 71.10000000000001)"/><path d="M490.92 914.1a10.3 10.3 0 0 1 12.64 0l80.5 62.43a6.2 6.2 0 0 1 0 9.8l-80.5 62.44a10.3 10.3 0 0 1-12.64 0l-80.5-62.44a6.2 6.2 0 0 1 0-9.8z" stroke="#333" fill="#fff"/><use xlink:href="#z" transform="matrix(1,0,0,1,409.10440792105305,914.184203854716) translate(57.05 71.10000000000001)"/><path d="M1261.9 720.55h27.5a12 12 0 0 0 12-12v-74.9a12 12 0 0 0-12-12h-27.5" stroke="#333" fill="none"/><path d="M1261.9 721.03h-.5v-.95h.5zM1261.9 622.13h-.5v-.95h.5z" stroke="#333" stroke-width=".05" fill="#333"/><path d="M1346.92 625.5a15.47 15.47 0 0 1 14.22 0l78.92 40.83a4.14 4.14 0 0 1 0 7.34l-78.92 40.82a15.47 15.47 0 0 1-14.22 0L1268 673.66a4.14 4.14 0 0 1 0-7.34z" stroke="#333" fill="#fff"/><g><use xlink:href="#A" transform="matrix(1,0,0,1,1265.8955223880596,626.8367346938776) translate(37.525 47.1)"/><use xlink:href="#B" transform="matrix(1,0,0,1,1265.8955223880596,626.8367346938776) translate(83.525 47.1)"/></g><defs><path fill="#666" d="M137 0h-34L2-248h35l83 218 83-218h36" id="C"/><path fill="#666" d="M100-194c62-1 85 37 85 99 1 63-27 99-86 99S16-35 15-95c0-66 28-99 85-99zM99-20c44 1 53-31 53-75 0-43-8-75-51-75s-53 32-53 75 10 74 51 75" id="D"/><path fill="#666" d="M114-163C36-179 61-72 57 0H25l-1-190h30c1 12-1 29 2 39 6-27 23-49 58-41v29" id="E"/><path fill="#666" d="M24 0v-261h32V0H24" id="F"/><path fill="#666" d="M100-194c63 0 86 42 84 106H49c0 40 14 67 53 68 26 1 43-12 49-29l28 8c-11 28-37 45-77 45C44 4 14-33 15-96c1-61 26-98 85-98zm52 81c6-60-76-77-97-28-3 7-6 17-6 28h103" id="G"/><path fill="#666" d="M135-143c-3-34-86-38-87 0 15 53 115 12 119 90S17 21 10-45l28-5c4 36 97 45 98 0-10-56-113-15-118-90-4-57 82-63 122-42 12 7 21 19 24 35" id="H"/><path fill="#666" d="M84 4C-5 8 30-112 23-190h32v120c0 31 7 50 39 49 72-2 45-101 50-169h31l1 190h-30c-1-10 1-25-2-33-11 22-28 36-60 37" id="I"/><path fill="#666" d="M117-194c89-4 53 116 60 194h-32v-121c0-31-8-49-39-48C34-167 62-67 57 0H25l-1-190h30c1 10-1 24 2 32 11-22 29-35 61-36" id="J"/><path fill="#666" d="M177-190C167-65 218 103 67 71c-23-6-38-20-44-43l32-5c15 47 100 32 89-28v-30C133-14 115 1 83 1 29 1 15-40 15-95c0-56 16-97 71-98 29-1 48 16 59 35 1-10 0-23 2-32h30zM94-22c36 0 50-32 50-73 0-42-14-75-50-75-39 0-46 34-46 75s6 73 46 73" id="K"/><g id="a"><use transform="matrix(0.05,0,0,0.05,0,0)" xlink:href="#C"/><use transform="matrix(0.05,0,0,0.05,11,0)" xlink:href="#D"/><use transform="matrix(0.05,0,0,0.05,21,0)" xlink:href="#E"/><use transform="matrix(0.05,0,0,0.05,26.950000000000003,0)" xlink:href="#F"/><use transform="matrix(0.05,0,0,0.05,30.899999999999995,0)" xlink:href="#G"/><use transform="matrix(0.05,0,0,0.05,40.9,0)" xlink:href="#H"/><use transform="matrix(0.05,0,0,0.05,49.9,0)" xlink:href="#I"/><use transform="matrix(0.05,0,0,0.05,59.900000000000006,0)" xlink:href="#J"/><use transform="matrix(0.05,0,0,0.05,69.9,0)" xlink:href="#K"/></g><path fill="#666" d="M33 0v-248h34V0H33" id="L"/><path fill="#666" d="M30-248c118-7 216 8 213 122C240-48 200 0 122 0H30v-248zM63-27c89 8 146-16 146-99s-60-101-146-95v194" id="M"/><g id="b"><use transform="matrix(0.05,0,0,0.05,0,0)" xlink:href="#C"/><use transform="matrix(0.05,0,0,0.05,11,0)" xlink:href="#D"/><use transform="matrix(0.05,0,0,0.05,21,0)" xlink:href="#E"/><use transform="matrix(0.05,0,0,0.05,26.950000000000003,0)" xlink:href="#F"/><use transform="matrix(0.05,0,0,0.05,30.899999999999995,0)" xlink:href="#G"/><use transform="matrix(0.05,0,0,0.05,40.9,0)" xlink:href="#H"/><use transform="matrix(0.05,0,0,0.05,49.9,0)" xlink:href="#I"/><use transform="matrix(0.05,0,0,0.05,59.900000000000006,0)" xlink:href="#J"/><use transform="matrix(0.05,0,0,0.05,69.9,0)" xlink:href="#K"/><use transform="matrix(0.05,0,0,0.05,79.9,0)" xlink:href="#L"/><use transform="matrix(0.05,0,0,0.05,84.9,0)" xlink:href="#M"/></g><path fill="#666" d="M127-220V0H93v-220H8v-28h204v28h-85" id="N"/><path fill="#666" d="M24-231v-30h32v30H24zM24 0v-190h32V0H24" id="O"/><path fill="#666" d="M59-47c-2 24 18 29 38 22v24C64 9 27 4 27-40v-127H5v-23h24l9-43h21v43h35v23H59v120" id="P"/><g id="c"><use transform="matrix(0.05,0,0,0.05,0,0)" xlink:href="#N"/><use transform="matrix(0.05,0,0,0.05,10.3,0)" xlink:href="#O"/><use transform="matrix(0.05,0,0,0.05,14.25,0)" xlink:href="#P"/><use transform="matrix(0.05,0,0,0.05,19.25,0)" xlink:href="#G"/><use transform="matrix(0.05,0,0,0.05,29.25,0)" xlink:href="#F"/></g><path fill="#666" d="M185-189c-5-48-123-54-124 2 14 75 158 14 163 119 3 78-121 87-175 55-17-10-28-26-33-46l33-7c5 56 141 63 141-1 0-78-155-14-162-118-5-82 145-84 179-34 5 7 8 16 11 25" id="Q"/><path fill="#666" d="M85-194c31 0 48 13 60 33l-1-100h32l1 261h-30c-2-10 0-23-3-31C134-8 116 4 85 4 32 4 16-35 15-94c0-66 23-100 70-100zm9 24c-40 0-46 34-46 75 0 40 6 74 45 74 42 0 51-32 51-76 0-42-9-74-50-73" id="R"/><g id="d"><use transform="matrix(0.05,0,0,0.05,0,0)" xlink:href="#Q"/><use transform="matrix(0.05,0,0,0.05,12,0)" xlink:href="#P"/><use transform="matrix(0.05,0,0,0.05,17,0)" xlink:href="#I"/><use transform="matrix(0.05,0,0,0.05,27,0)" xlink:href="#R"/><use transform="matrix(0.05,0,0,0.05,37,0)" xlink:href="#G"/><use transform="matrix(0.05,0,0,0.05,47,0)" xlink:href="#J"/><use transform="matrix(0.05,0,0,0.05,57,0)" xlink:href="#P"/></g><path fill="#666" d="M30-248c87 1 191-15 191 75 0 78-77 80-158 76V0H30v-248zm33 125c57 0 124 11 124-50 0-59-68-47-124-48v98" id="S"/><path fill="#666" d="M101-234c-31-9-42 10-38 44h38v23H63V0H32v-167H5v-23h27c-7-52 17-82 69-68v24" id="T"/><g id="e"><use transform="matrix(0.05,0,0,0.05,0,0)" xlink:href="#S"/><use transform="matrix(0.05,0,0,0.05,12,0)" xlink:href="#E"/><use transform="matrix(0.05,0,0,0.05,17.95,0)" xlink:href="#D"/><use transform="matrix(0.05,0,0,0.05,27.950000000000003,0)" xlink:href="#T"/><use transform="matrix(0.05,0,0,0.05,32.95,0)" xlink:href="#G"/><use transform="matrix(0.05,0,0,0.05,42.95,0)" xlink:href="#H"/><use transform="matrix(0.05,0,0,0.05,51.95,0)" xlink:href="#H"/><use transform="matrix(0.05,0,0,0.05,60.95,0)" xlink:href="#D"/><use transform="matrix(0.05,0,0,0.05,70.95,0)" xlink:href="#E"/></g><path fill="#666" d="M233-177c-1 41-23 64-60 70L243 0h-38l-65-103H63V0H30v-248c88 3 205-21 203 71zM63-129c60-2 137 13 137-47 0-61-80-42-137-45v92" id="U"/><path fill="#666" d="M141-36C126-15 110 5 73 4 37 3 15-17 15-53c-1-64 63-63 125-63 3-35-9-54-41-54-24 1-41 7-42 31l-33-3c5-37 33-52 76-52 45 0 72 20 72 64v82c-1 20 7 32 28 27v20c-31 9-61-2-59-35zM48-53c0 20 12 33 32 33 41-3 63-29 60-74-43 2-92-5-92 41" id="V"/><path fill="#666" d="M210-169c-67 3-38 105-44 169h-31v-121c0-29-5-50-35-48C34-165 62-65 56 0H25l-1-190h30c1 10-1 24 2 32 10-44 99-50 107 0 11-21 27-35 58-36 85-2 47 119 55 194h-31v-121c0-29-5-49-35-48" id="W"/><g id="f"><use transform="matrix(0.05,0,0,0.05,0,0)" xlink:href="#U"/><use transform="matrix(0.05,0,0,0.05,12.950000000000001,0)" xlink:href="#V"/><use transform="matrix(0.05,0,0,0.05,22.950000000000003,0)" xlink:href="#I"/><use transform="matrix(0.05,0,0,0.05,32.95,0)" xlink:href="#W"/></g><path fill="#666" d="M143 4C61 4 22-44 18-125c-5-107 100-154 193-111 17 8 29 25 37 43l-32 9c-13-25-37-40-76-40-61 0-88 39-88 99 0 61 29 100 91 101 35 0 62-11 79-27v-45h-74v-28h105v86C228-13 192 4 143 4" id="X"/><path fill="#666" d="M115-194c53 0 69 39 70 98 0 66-23 100-70 100C84 3 66-7 56-30L54 0H23l1-261h32v101c10-23 28-34 59-34zm-8 174c40 0 45-34 45-75 0-40-5-75-45-74-42 0-51 32-51 76 0 43 10 73 51 73" id="Y"/><g id="g"><use transform="matrix(0.05,0,0,0.05,0,0)" xlink:href="#X"/><use transform="matrix(0.05,0,0,0.05,14,0)" xlink:href="#G"/><use transform="matrix(0.05,0,0,0.05,24,0)" xlink:href="#Y"/><use transform="matrix(0.05,0,0,0.05,34,0)" xlink:href="#I"/><use transform="matrix(0.05,0,0,0.05,44,0)" xlink:href="#E"/><use transform="matrix(0.05,0,0,0.05,49.95,0)" xlink:href="#P"/><use transform="matrix(0.05,0,0,0.05,54.95,0)" xlink:href="#H"/><use transform="matrix(0.05,0,0,0.05,63.95,0)" xlink:href="#R"/><use transform="matrix(0.05,0,0,0.05,73.95,0)" xlink:href="#V"/><use transform="matrix(0.05,0,0,0.05,83.95,0)" xlink:href="#P"/><use transform="matrix(0.05,0,0,0.05,88.95,0)" xlink:href="#I"/><use transform="matrix(0.05,0,0,0.05,98.95,0)" xlink:href="#W"/></g><g id="h"><use transform="matrix(0.05,0,0,0.05,0,0)" xlink:href="#C"/><use transform="matrix(0.05,0,0,0.05,11,0)" xlink:href="#D"/><use transform="matrix(0.05,0,0,0.05,21,0)" xlink:href="#E"/><use transform="matrix(0.05,0,0,0.05,26.950000000000003,0)" xlink:href="#J"/><use transform="matrix(0.05,0,0,0.05,36.95,0)" xlink:href="#V"/><use transform="matrix(0.05,0,0,0.05,46.95,0)" xlink:href="#W"/><use transform="matrix(0.05,0,0,0.05,61.900000000000006,0)" xlink:href="#G"/></g><path fill="#666" d="M190 0L58-211 59 0H30v-248h39L202-35l-2-213h31V0h-41" id="Z"/><path fill="#666" d="M96-169c-40 0-48 33-48 73s9 75 48 75c24 0 41-14 43-38l32 2c-6 37-31 61-74 61-59 0-76-41-82-99-10-93 101-131 147-64 4 7 5 14 7 22l-32 3c-4-21-16-35-41-35" id="aa"/><path fill="#666" d="M106-169C34-169 62-67 57 0H25v-261h32l-1 103c12-21 28-36 61-36 89 0 53 116 60 194h-32v-121c2-32-8-49-39-48" id="ab"/><g id="i"><use transform="matrix(0.05,0,0,0.05,0,0)" xlink:href="#Z"/><use transform="matrix(0.05,0,0,0.05,12.950000000000001,0)" xlink:href="#V"/><use transform="matrix(0.05,0,0,0.05,22.950000000000003,0)" xlink:href="#aa"/><use transform="matrix(0.05,0,0,0.05,31.950000000000003,0)" xlink:href="#ab"/><use transform="matrix(0.05,0,0,0.05,41.95,0)" xlink:href="#J"/><use transform="matrix(0.05,0,0,0.05,51.95,0)" xlink:href="#V"/><use transform="matrix(0.05,0,0,0.05,61.95,0)" xlink:href="#W"/><use transform="matrix(0.05,0,0,0.05,76.9,0)" xlink:href="#G"/></g><g id="j"><use transform="matrix(0.05,0,0,0.05,0,0)" xlink:href="#Q"/><use transform="matrix(0.05,0,0,0.05,12,0)" xlink:href="#P"/><use transform="matrix(0.05,0,0,0.05,17,0)" xlink:href="#I"/><use transform="matrix(0.05,0,0,0.05,27,0)" xlink:href="#R"/><use transform="matrix(0.05,0,0,0.05,37,0)" xlink:href="#O"/><use transform="matrix(0.05,0,0,0.05,40.95,0)" xlink:href="#G"/><use transform="matrix(0.05,0,0,0.05,50.95,0)" xlink:href="#J"/><use transform="matrix(0.05,0,0,0.05,60.95,0)" xlink:href="#Y"/><use transform="matrix(0.05,0,0,0.05,70.95,0)" xlink:href="#G"/><use transform="matrix(0.05,0,0,0.05,80.95,0)" xlink:href="#K"/><use transform="matrix(0.05,0,0,0.05,90.95,0)" xlink:href="#O"/><use transform="matrix(0.05,0,0,0.05,94.9,0)" xlink:href="#J"/></g><path fill="#666" d="M240 0l2-218c-23 76-54 145-80 218h-23L58-218 59 0H30v-248h44l77 211c21-75 51-140 76-211h43V0h-30" id="ac"/><path fill="#666" d="M143 0L79-87 56-68V0H24v-261h32v163l83-92h37l-77 82L181 0h-38" id="ad"/><g id="k"><use transform="matrix(0.05,0,0,0.05,0,0)" xlink:href="#ac"/><use transform="matrix(0.05,0,0,0.05,14.950000000000001,0)" xlink:href="#V"/><use transform="matrix(0.05,0,0,0.05,24.950000000000003,0)" xlink:href="#P"/><use transform="matrix(0.05,0,0,0.05,29.950000000000003,0)" xlink:href="#E"/><use transform="matrix(0.05,0,0,0.05,35.900000000000006,0)" xlink:href="#O"/><use transform="matrix(0.05,0,0,0.05,39.85000000000001,0)" xlink:href="#ad"/><use transform="matrix(0.05,0,0,0.05,48.85000000000001,0)" xlink:href="#G"/><use transform="matrix(0.05,0,0,0.05,58.85,0)" xlink:href="#F"/><use transform="matrix(0.05,0,0,0.05,62.80000000000001,0)" xlink:href="#L"/><use transform="matrix(0.05,0,0,0.05,67.80000000000001,0)" xlink:href="#M"/></g><path fill="#666" d="M205 0l-28-72H64L36 0H1l101-248h38L239 0h-34zm-38-99l-47-123c-12 45-31 82-46 123h93" id="ae"/><g id="l"><use transform="matrix(0.05,0,0,0.05,0,0)" xlink:href="#ae"/><use transform="matrix(0.05,0,0,0.05,12,0)" xlink:href="#H"/><use transform="matrix(0.05,0,0,0.05,21,0)" xlink:href="#O"/><use transform="matrix(0.05,0,0,0.05,24.95,0)" xlink:href="#H"/><use transform="matrix(0.05,0,0,0.05,33.95,0)" xlink:href="#P"/><use transform="matrix(0.05,0,0,0.05,38.95,0)" xlink:href="#G"/><use transform="matrix(0.05,0,0,0.05,48.95,0)" xlink:href="#J"/><use transform="matrix(0.05,0,0,0.05,58.95,0)" xlink:href="#P"/><use transform="matrix(0.05,0,0,0.05,63.95,0)" xlink:href="#G"/><use transform="matrix(0.05,0,0,0.05,73.95,0)" xlink:href="#J"/></g><g id="m"><use transform="matrix(0.05,0,0,0.05,0,0)" xlink:href="#ae"/><use transform="matrix(0.05,0,0,0.05,12,0)" xlink:href="#H"/><use transform="matrix(0.05,0,0,0.05,21,0)" xlink:href="#H"/><use transform="matrix(0.05,0,0,0.05,30,0)" xlink:href="#O"/><use transform="matrix(0.05,0,0,0.05,33.95,0)" xlink:href="#H"/><use transform="matrix(0.05,0,0,0.05,42.95,0)" xlink:href="#P"/><use transform="matrix(0.05,0,0,0.05,47.95,0)" xlink:href="#G"/><use transform="matrix(0.05,0,0,0.05,57.95,0)" xlink:href="#J"/><use transform="matrix(0.05,0,0,0.05,67.95,0)" xlink:href="#P"/><use transform="matrix(0.05,0,0,0.05,72.95,0)" xlink:href="#L"/><use transform="matrix(0.05,0,0,0.05,77.95,0)" xlink:href="#M"/></g><path fill="#666" d="M197 0v-115H63V0H30v-248h33v105h134v-105h34V0h-34" id="af"/><g id="n"><use transform="matrix(0.05,0,0,0.05,0,0)" xlink:href="#af"/><use transform="matrix(0.05,0,0,0.05,12.950000000000001,0)" xlink:href="#V"/><use transform="matrix(0.05,0,0,0.05,22.950000000000003,0)" xlink:href="#P"/></g><g id="o"><use transform="matrix(0.05,0,0,0.05,0,0)" xlink:href="#G"/><use transform="matrix(0.05,0,0,0.05,10,0)" xlink:href="#O"/><use transform="matrix(0.05,0,0,0.05,13.949999999999998,0)" xlink:href="#J"/></g><path fill="#666" d="M85 4C-4 8 31-112 24-190h32v120c0 31 7 50 39 49 72-2 45-101 50-169h31l1 190h-30c-1-10 1-25-2-33-11 22-28 36-60 37zm34-218v-33h29v33h-29zm-69 0v-33h29v33H50" id="ag"/><g id="p"><use transform="matrix(0.05,0,0,0.05,0,0)" xlink:href="#S"/><use transform="matrix(0.05,0,0,0.05,12,0)" xlink:href="#E"/><use transform="matrix(0.05,0,0,0.05,17.95,0)" xlink:href="#ag"/><use transform="matrix(0.05,0,0,0.05,27.950000000000003,0)" xlink:href="#T"/><use transform="matrix(0.05,0,0,0.05,32.95,0)" xlink:href="#I"/><use transform="matrix(0.05,0,0,0.05,42.95,0)" xlink:href="#J"/><use transform="matrix(0.05,0,0,0.05,52.95,0)" xlink:href="#K"/></g><g id="q"><use transform="matrix(0.05,0,0,0.05,0,0)" xlink:href="#S"/><use transform="matrix(0.05,0,0,0.05,12,0)" xlink:href="#E"/><use transform="matrix(0.05,0,0,0.05,17.95,0)" xlink:href="#ag"/><use transform="matrix(0.05,0,0,0.05,27.950000000000003,0)" xlink:href="#T"/><use transform="matrix(0.05,0,0,0.05,32.95,0)" xlink:href="#I"/><use transform="matrix(0.05,0,0,0.05,42.95,0)" xlink:href="#J"/><use transform="matrix(0.05,0,0,0.05,52.95,0)" xlink:href="#K"/><use transform="matrix(0.05,0,0,0.05,62.95,0)" xlink:href="#H"/><use transform="matrix(0.05,0,0,0.05,71.95,0)" xlink:href="#L"/><use transform="matrix(0.05,0,0,0.05,76.95,0)" xlink:href="#M"/></g><g id="r"><use transform="matrix(0.05,0,0,0.05,0,0)" xlink:href="#N"/><use transform="matrix(0.05,0,0,0.05,8.950000000000001,0)" xlink:href="#G"/><use transform="matrix(0.05,0,0,0.05,18.950000000000003,0)" xlink:href="#E"/><use transform="matrix(0.05,0,0,0.05,24.900000000000002,0)" xlink:href="#W"/><use transform="matrix(0.05,0,0,0.05,39.85,0)" xlink:href="#O"/><use transform="matrix(0.05,0,0,0.05,43.800000000000004,0)" xlink:href="#J"/></g><g id="s"><use transform="matrix(0.05,0,0,0.05,0,0)" xlink:href="#Z"/><use transform="matrix(0.05,0,0,0.05,12.950000000000001,0)" xlink:href="#D"/><use transform="matrix(0.05,0,0,0.05,22.950000000000003,0)" xlink:href="#P"/><use transform="matrix(0.05,0,0,0.05,27.950000000000003,0)" xlink:href="#G"/></g><path fill="#666" d="M141-36C126-15 110 5 73 4 37 3 15-17 15-53c-1-64 63-63 125-63 3-35-9-54-41-54-24 1-41 7-42 31l-33-3c5-37 33-52 76-52 45 0 72 20 72 64v82c-1 20 7 32 28 27v20c-31 9-61-2-59-35zM48-53c0 20 12 33 32 33 41-3 63-29 60-74-43 2-92-5-92 41zm70-161v-33h29v33h-29zm-69 0v-33h29v33H49" id="ah"/><g id="t"><use transform="matrix(0.05,0,0,0.05,0,0)" xlink:href="#ab"/><use transform="matrix(0.05,0,0,0.05,10,0)" xlink:href="#ah"/><use transform="matrix(0.05,0,0,0.05,20,0)" xlink:href="#F"/><use transform="matrix(0.05,0,0,0.05,23.95,0)" xlink:href="#P"/></g><path fill="#666" d="M266 0h-40l-56-210L115 0H75L2-248h35L96-30l15-64 43-154h32l59 218 59-218h35" id="ai"/><g id="u"><use transform="matrix(0.05,0,0,0.05,0,0)" xlink:href="#ai"/><use transform="matrix(0.05,0,0,0.05,16.95,0)" xlink:href="#O"/><use transform="matrix(0.05,0,0,0.05,20.9,0)" xlink:href="#E"/><use transform="matrix(0.05,0,0,0.05,26.849999999999994,0)" xlink:href="#R"/></g><g id="v"><use transform="matrix(0.05,0,0,0.05,0,0)" xlink:href="#Y"/><use transform="matrix(0.05,0,0,0.05,10,0)" xlink:href="#G"/><use transform="matrix(0.05,0,0,0.05,20,0)" xlink:href="#H"/><use transform="matrix(0.05,0,0,0.05,29,0)" xlink:href="#I"/><use transform="matrix(0.05,0,0,0.05,39,0)" xlink:href="#aa"/><use transform="matrix(0.05,0,0,0.05,48,0)" xlink:href="#ab"/><use transform="matrix(0.05,0,0,0.05,58,0)" xlink:href="#P"/></g><path fill="#666" d="M108 0H70L1-190h34L89-25l56-165h34" id="aj"/><g id="w"><use transform="matrix(0.05,0,0,0.05,0,0)" xlink:href="#aj"/><use transform="matrix(0.05,0,0,0.05,9,0)" xlink:href="#D"/><use transform="matrix(0.05,0,0,0.05,19,0)" xlink:href="#J"/></g><g id="x"><use transform="matrix(0.05,0,0,0.05,0,0)" xlink:href="#Y"/><use transform="matrix(0.05,0,0,0.05,10,0)" xlink:href="#G"/><use transform="matrix(0.05,0,0,0.05,20,0)" xlink:href="#V"/><use transform="matrix(0.05,0,0,0.05,30,0)" xlink:href="#I"/><use transform="matrix(0.05,0,0,0.05,40,0)" xlink:href="#T"/><use transform="matrix(0.05,0,0,0.05,45,0)" xlink:href="#H"/><use transform="matrix(0.05,0,0,0.05,54,0)" xlink:href="#O"/><use transform="matrix(0.05,0,0,0.05,57.95,0)" xlink:href="#aa"/><use transform="matrix(0.05,0,0,0.05,66.95,0)" xlink:href="#ab"/><use transform="matrix(0.05,0,0,0.05,76.95,0)" xlink:href="#P"/><use transform="matrix(0.05,0,0,0.05,81.95,0)" xlink:href="#O"/><use transform="matrix(0.05,0,0,0.05,85.9,0)" xlink:href="#K"/><use transform="matrix(0.05,0,0,0.05,95.9,0)" xlink:href="#P"/></g><g id="y"><use transform="matrix(0.05,0,0,0.05,0,0)" xlink:href="#ab"/><use transform="matrix(0.05,0,0,0.05,10,0)" xlink:href="#V"/><use transform="matrix(0.05,0,0,0.05,20,0)" xlink:href="#P"/></g><g id="z"><use transform="matrix(0.05,0,0,0.05,0,0)" xlink:href="#H"/><use transform="matrix(0.05,0,0,0.05,9,0)" xlink:href="#aa"/><use transform="matrix(0.05,0,0,0.05,18,0)" xlink:href="#ab"/><use transform="matrix(0.05,0,0,0.05,28,0)" xlink:href="#E"/><use transform="matrix(0.05,0,0,0.05,33.95,0)" xlink:href="#G"/><use transform="matrix(0.05,0,0,0.05,43.95,0)" xlink:href="#O"/><use transform="matrix(0.05,0,0,0.05,47.900000000000006,0)" xlink:href="#Y"/><use transform="matrix(0.05,0,0,0.05,57.900000000000006,0)" xlink:href="#P"/></g><path fill="#666" d="M9 0v-24l116-142H16v-24h144v24L44-24h123V0H9" id="ak"/><g id="A"><use transform="matrix(0.05,0,0,0.05,0,0)" xlink:href="#Q"/><use transform="matrix(0.05,0,0,0.05,12,0)" xlink:href="#G"/><use transform="matrix(0.05,0,0,0.05,22,0)" xlink:href="#P"/><use transform="matrix(0.05,0,0,0.05,27,0)" xlink:href="#ak"/><use transform="matrix(0.05,0,0,0.05,36,0)" xlink:href="#P"/></g><g id="B"><use transform="matrix(0.05,0,0,0.05,0,0)" xlink:href="#C"/><use transform="matrix(0.05,0,0,0.05,11,0)" xlink:href="#D"/><use transform="matrix(0.05,0,0,0.05,21,0)" xlink:href="#E"/><use transform="matrix(0.05,0,0,0.05,26.950000000000003,0)" xlink:href="#V"/><use transform="matrix(0.05,0,0,0.05,36.95,0)" xlink:href="#I"/><use transform="matrix(0.05,0,0,0.05,46.95,0)" xlink:href="#H"/></g></defs></g></svg>