<?xml version="1.0" encoding="UTF-8"?>
<?xml-stylesheet href="https://cdnjs.cloudflare.com/ajax/libs/font-awesome/6.6.0/css/all.min.css" type="text/css"?>
<svg aria-roledescription="er" role="graphics-document document" viewBox="-134.95758056640625 0 691.1280517578125 862.6666870117188" style="max-width: 100%;" xmlns="http://www.w3.org/2000/svg" width="100%" id="graph-div" height="100%" xmlns:xlink="http://www.w3.org/1999/xlink"><style>#graph-div{font-family:"trebuchet ms",verdana,arial,sans-serif;font-size:16px;fill:#ccc;}#graph-div .error-icon{fill:#a44141;}#graph-div .error-text{fill:#ddd;stroke:#ddd;}#graph-div .edge-thickness-normal{stroke-width:1px;}#graph-div .edge-thickness-thick{stroke-width:3.5px;}#graph-div .edge-pattern-solid{stroke-dasharray:0;}#graph-div .edge-thickness-invisible{stroke-width:0;fill:none;}#graph-div .edge-pattern-dashed{stroke-dasharray:3;}#graph-div .edge-pattern-dotted{stroke-dasharray:2;}#graph-div .marker{fill:lightgrey;stroke:lightgrey;}#graph-div .marker.cross{stroke:lightgrey;}#graph-div svg{font-family:"trebuchet ms",verdana,arial,sans-serif;font-size:16px;}#graph-div p{margin:0;}#graph-div .entityBox{fill:#1f2020;stroke:#ccc;}#graph-div .attributeBoxOdd{fill:hsl(0, 0%, 32%);stroke:#ccc;}#graph-div .attributeBoxEven{fill:hsl(0, 0%, 22%);stroke:#ccc;}#graph-div .relationshipLabelBox{fill:hsl(20, 1.5873015873%, 12.3529411765%);opacity:0.7;background-color:hsl(20, 1.5873015873%, 12.3529411765%);}#graph-div .relationshipLabelBox rect{opacity:0.5;}#graph-div .relationshipLine{stroke:lightgrey;}#graph-div .entityTitleText{text-anchor:middle;font-size:18px;fill:#ccc;}#graph-div #MD_PARENT_START{fill:#f5f5f5!important;stroke:lightgrey!important;stroke-width:1;}#graph-div #MD_PARENT_END{fill:#f5f5f5!important;stroke:lightgrey!important;stroke-width:1;}#graph-div :root{--mermaid-font-family:"trebuchet ms",verdana,arial,sans-serif;}</style><g></g><defs><marker orient="auto" markerHeight="240" markerWidth="190" refY="7" refX="0" id="MD_PARENT_START"><path d="M 18,7 L9,13 L1,7 L9,1 Z"></path></marker></defs><defs><marker orient="auto" markerHeight="28" markerWidth="20" refY="7" refX="19" id="MD_PARENT_END"><path d="M 18,7 L9,13 L1,7 L9,1 Z"></path></marker></defs><defs><marker orient="auto" markerHeight="18" markerWidth="18" refY="9" refX="0" id="ONLY_ONE_START"><path d="M9,0 L9,18 M15,0 L15,18" fill="none" stroke="gray"></path></marker></defs><defs><marker orient="auto" markerHeight="18" markerWidth="18" refY="9" refX="18" id="ONLY_ONE_END"><path d="M3,0 L3,18 M9,0 L9,18" fill="none" stroke="gray"></path></marker></defs><defs><marker orient="auto" markerHeight="18" markerWidth="30" refY="9" refX="0" id="ZERO_OR_ONE_START"><circle r="6" cy="9" cx="21" fill="white" stroke="gray"></circle><path d="M9,0 L9,18" fill="none" stroke="gray"></path></marker></defs><defs><marker orient="auto" markerHeight="18" markerWidth="30" refY="9" refX="30" id="ZERO_OR_ONE_END"><circle r="6" cy="9" cx="9" fill="white" stroke="gray"></circle><path d="M21,0 L21,18" fill="none" stroke="gray"></path></marker></defs><defs><marker orient="auto" markerHeight="36" markerWidth="45" refY="18" refX="18" id="ONE_OR_MORE_START"><path d="M0,18 Q 18,0 36,18 Q 18,36 0,18 M42,9 L42,27" fill="none" stroke="gray"></path></marker></defs><defs><marker orient="auto" markerHeight="36" markerWidth="45" refY="18" refX="27" id="ONE_OR_MORE_END"><path d="M3,9 L3,27 M9,18 Q27,0 45,18 Q27,36 9,18" fill="none" stroke="gray"></path></marker></defs><defs><marker orient="auto" markerHeight="36" markerWidth="57" refY="18" refX="18" id="ZERO_OR_MORE_START"><circle r="6" cy="18" cx="48" fill="white" stroke="gray"></circle><path d="M0,18 Q18,0 36,18 Q18,36 0,18" fill="none" stroke="gray"></path></marker></defs><defs><marker orient="auto" markerHeight="36" markerWidth="57" refY="18" refX="39" id="ZERO_OR_MORE_END"><circle r="6" cy="18" cx="9" fill="white" stroke="gray"></circle><path d="M21,18 Q39,0 57,18 Q39,36 21,18" fill="none" stroke="gray"></path></marker></defs><path style="stroke: gray; fill: none;" marker-start="url(#ONLY_ONE_START)" marker-end="url(#ZERO_OR_MORE_END)" d="M153.497,118.814L180.694,132.456C207.892,146.098,262.287,173.382,289.485,198.913C316.682,224.444,316.682,248.222,316.682,260.111L316.682,272" class="er relationshipLine"></path><path style="stroke: gray; fill: none;" marker-start="url(#ONLY_ONE_START)" marker-end="url(#ZERO_OR_MORE_END)" d="M86.748,150.667L86.748,159C86.748,167.333,86.748,184,86.748,200.667C86.748,217.333,86.748,234,86.748,242.333L86.748,250.667" class="er relationshipLine"></path><path style="stroke: gray; fill: none;" marker-start="url(#ONLY_ONE_START)" marker-end="url(#ZERO_OR_MORE_END)" d="M20,131.629L3.41,143.135C-13.179,154.642,-46.358,177.654,-62.948,208.383C-79.537,239.111,-79.537,277.556,-79.537,316C-79.537,354.444,-79.537,392.889,-79.537,429.556C-79.537,466.222,-79.537,501.111,-79.537,536C-79.537,570.889,-79.537,605.778,-49.661,638.395C-19.784,671.012,39.969,701.357,69.846,716.529L99.722,731.702" class="er relationshipLine"></path><path style="stroke: gray; fill: none;" marker-start="url(#ONLY_ONE_START)" marker-end="url(#ZERO_OR_MORE_END)" d="M260.178,360L244.911,371.889C229.643,383.778,199.108,407.556,183.84,436.889C168.573,466.222,168.573,501.111,168.573,536C168.573,570.889,168.573,605.778,168.573,631.556C168.573,657.333,168.573,674,168.573,682.333L168.573,690.667" class="er relationshipLine"></path><path style="stroke: gray; fill: none;" marker-start="url(#ONLY_ONE_START)" marker-end="url(#ZERO_OR_MORE_END)" d="M380.331,295.045L391.998,291.205C403.665,287.364,426.998,279.682,441.581,275.841C456.165,272,461.998,272,467.831,279.333C473.665,286.667,479.498,301.333,479.498,316C479.498,330.667,473.665,345.333,467.831,352.667C461.998,360,456.165,360,441.581,356.159C426.998,352.318,403.665,344.636,391.998,340.795L380.331,336.955" class="er relationshipLine"></path><path style="stroke: gray; fill: none;" marker-start="url(#ZERO_OR_MORE_START)" marker-end="url(#ZERO_OR_MORE_END)" d="M348.518,360L357.12,371.889C365.722,383.778,382.926,407.556,391.528,427.778C400.13,448,400.13,464.667,400.13,473L400.13,481.333" class="er relationshipLine"></path><path style="stroke: gray; fill: none;" marker-start="url(#ONLY_ONE_START)" marker-end="url(#ZERO_OR_MORE_END)" d="M400.13,590.667L400.13,599C400.13,607.333,400.13,624,373.012,647.089C345.894,670.179,291.659,699.69,264.541,714.446L237.423,729.202" class="er relationshipLine"></path><g transform="translate(20,20 )" id="entity-PROFESSOR-f29511f2-c470-53d9-ab92-870afa93aab7"><rect height="130.66666984558105" width="133.49662971496582" y="0" x="0" class="er entityBox"></rect><text transform="translate(66.74831485748291,12)" style="dominant-baseline: middle; text-anchor: middle; font-size: 12px;" y="0" x="0" id="text-entity-PROFESSOR-f29511f2-c470-53d9-ab92-870afa93aab7" class="er entityLabel">PROFESSOR</text><rect height="21.33333396911621" width="35.9389762878418" y="24" x="0" class="er attributeBoxOdd"></rect><text transform="translate(5,34.666666984558105)" style="dominant-baseline: middle; font-size: 10.2px;" y="0" x="0" id="text-entity-PROFESSOR-f29511f2-c470-53d9-ab92-870afa93aab7-attr-1-type" class="er entityLabel">int</text><rect height="21.33333396911621" width="74.94792175292969" y="24" x="35.9389762878418" class="er attributeBoxOdd"></rect><text transform="translate(40.9389762878418,34.666666984558105)" style="dominant-baseline: middle; font-size: 10.2px;" y="0" x="0" id="text-entity-PROFESSOR-f29511f2-c470-53d9-ab92-870afa93aab7-attr-1-name" class="er entityLabel">ProfID</text><rect height="21.33333396911621" width="22.609731674194336" y="24" x="110.88689804077148" class="er attributeBoxOdd"></rect><text transform="translate(115.88689804077148,34.666666984558105)" style="dominant-baseline: middle; font-size: 10.2px;" y="0" x="0" id="text-entity-PROFESSOR-f29511f2-c470-53d9-ab92-870afa93aab7-attr-1-key" class="er entityLabel">PK</text><rect height="21.33333396911621" width="35.9389762878418" y="45.33333396911621" x="0" class="er attributeBoxEven"></rect><text transform="translate(5,56.000000953674316)" style="dominant-baseline: middle; font-size: 10.2px;" y="0" x="0" id="text-entity-PROFESSOR-f29511f2-c470-53d9-ab92-870afa93aab7-attr-2-type" class="er entityLabel">string</text><rect height="21.33333396911621" width="74.94792175292969" y="45.33333396911621" x="35.9389762878418" class="er attributeBoxEven"></rect><text transform="translate(40.9389762878418,56.000000953674316)" style="dominant-baseline: middle; font-size: 10.2px;" y="0" x="0" id="text-entity-PROFESSOR-f29511f2-c470-53d9-ab92-870afa93aab7-attr-2-name" class="er entityLabel">Vorname</text><rect height="21.33333396911621" width="22.609731674194336" y="45.33333396911621" x="110.88689804077148" class="er attributeBoxEven"></rect><text transform="translate(115.88689804077148,56.000000953674316)" style="dominant-baseline: middle; font-size: 10.2px;" y="0" x="0" id="text-entity-PROFESSOR-f29511f2-c470-53d9-ab92-870afa93aab7-attr-2-key" class="er entityLabel"></text><rect height="21.33333396911621" width="35.9389762878418" y="66.66666793823242" x="0" class="er attributeBoxOdd"></rect><text transform="translate(5,77.33333492279053)" style="dominant-baseline: middle; font-size: 10.2px;" y="0" x="0" id="text-entity-PROFESSOR-f29511f2-c470-53d9-ab92-870afa93aab7-attr-3-type" class="er entityLabel">string</text><rect height="21.33333396911621" width="74.94792175292969" y="66.66666793823242" x="35.9389762878418" class="er attributeBoxOdd"></rect><text transform="translate(40.9389762878418,77.33333492279053)" style="dominant-baseline: middle; font-size: 10.2px;" y="0" x="0" id="text-entity-PROFESSOR-f29511f2-c470-53d9-ab92-870afa93aab7-attr-3-name" class="er entityLabel">Nachname</text><rect height="21.33333396911621" width="22.609731674194336" y="66.66666793823242" x="110.88689804077148" class="er attributeBoxOdd"></rect><text transform="translate(115.88689804077148,77.33333492279053)" style="dominant-baseline: middle; font-size: 10.2px;" y="0" x="0" id="text-entity-PROFESSOR-f29511f2-c470-53d9-ab92-870afa93aab7-attr-3-key" class="er entityLabel"></text><rect height="21.33333396911621" width="35.9389762878418" y="88.00000190734863" x="0" class="er attributeBoxEven"></rect><text transform="translate(5,98.66666889190674)" style="dominant-baseline: middle; font-size: 10.2px;" y="0" x="0" id="text-entity-PROFESSOR-f29511f2-c470-53d9-ab92-870afa93aab7-attr-4-type" class="er entityLabel">date</text><rect height="21.33333396911621" width="74.94792175292969" y="88.00000190734863" x="35.9389762878418" class="er attributeBoxEven"></rect><text transform="translate(40.9389762878418,98.66666889190674)" style="dominant-baseline: middle; font-size: 10.2px;" y="0" x="0" id="text-entity-PROFESSOR-f29511f2-c470-53d9-ab92-870afa93aab7-attr-4-name" class="er entityLabel">Geburtsdatum</text><rect height="21.33333396911621" width="22.609731674194336" y="88.00000190734863" x="110.88689804077148" class="er attributeBoxEven"></rect><text transform="translate(115.88689804077148,98.66666889190674)" style="dominant-baseline: middle; font-size: 10.2px;" y="0" x="0" id="text-entity-PROFESSOR-f29511f2-c470-53d9-ab92-870afa93aab7-attr-4-key" class="er entityLabel"></text><rect height="21.33333396911621" width="35.9389762878418" y="109.33333587646484" x="0" class="er attributeBoxOdd"></rect><text transform="translate(5,120.00000286102295)" style="dominant-baseline: middle; font-size: 10.2px;" y="0" x="0" id="text-entity-PROFESSOR-f29511f2-c470-53d9-ab92-870afa93aab7-attr-5-type" class="er entityLabel">string</text><rect height="21.33333396911621" width="74.94792175292969" y="109.33333587646484" x="35.9389762878418" class="er attributeBoxOdd"></rect><text transform="translate(40.9389762878418,120.00000286102295)" style="dominant-baseline: middle; font-size: 10.2px;" y="0" x="0" id="text-entity-PROFESSOR-f29511f2-c470-53d9-ab92-870afa93aab7-attr-5-name" class="er entityLabel">Raum</text><rect height="21.33333396911621" width="22.609731674194336" y="109.33333587646484" x="110.88689804077148" class="er attributeBoxOdd"></rect><text transform="translate(115.88689804077148,120.00000286102295)" style="dominant-baseline: middle; font-size: 10.2px;" y="0" x="0" id="text-entity-PROFESSOR-f29511f2-c470-53d9-ab92-870afa93aab7-attr-5-key" class="er entityLabel">UK</text></g><g transform="translate(253.03375244140625,272.00000762939453 )" id="entity-VORLESUNG-58cf745f-e845-5e30-980b-258aa4649ee4"><rect height="88.00000190734863" width="127.297438621521" y="0" x="0" class="er entityBox"></rect><text transform="translate(63.6487193107605,12)" style="dominant-baseline: middle; text-anchor: middle; font-size: 12px;" y="0" x="0" id="text-entity-VORLESUNG-58cf745f-e845-5e30-980b-258aa4649ee4" class="er entityLabel">VORLESUNG</text><rect height="21.33333396911621" width="35.9389762878418" y="24" x="0" class="er attributeBoxOdd"></rect><text transform="translate(5,34.666666984558105)" style="dominant-baseline: middle; font-size: 10.2px;" y="0" x="0" id="text-entity-VORLESUNG-58cf745f-e845-5e30-980b-258aa4649ee4-attr-1-type" class="er entityLabel">int</text><rect height="21.33333396911621" width="69.67449188232422" y="24" x="35.9389762878418" class="er attributeBoxOdd"></rect><text transform="translate(40.9389762878418,34.666666984558105)" style="dominant-baseline: middle; font-size: 10.2px;" y="0" x="0" id="text-entity-VORLESUNG-58cf745f-e845-5e30-980b-258aa4649ee4-attr-1-name" class="er entityLabel">VorlesungsNr</text><rect height="21.33333396911621" width="21.68397045135498" y="24" x="105.61346817016602" class="er attributeBoxOdd"></rect><text transform="translate(110.61346817016602,34.666666984558105)" style="dominant-baseline: middle; font-size: 10.2px;" y="0" x="0" id="text-entity-VORLESUNG-58cf745f-e845-5e30-980b-258aa4649ee4-attr-1-key" class="er entityLabel">PK</text><rect height="21.33333396911621" width="35.9389762878418" y="45.33333396911621" x="0" class="er attributeBoxEven"></rect><text transform="translate(5,56.000000953674316)" style="dominant-baseline: middle; font-size: 10.2px;" y="0" x="0" id="text-entity-VORLESUNG-58cf745f-e845-5e30-980b-258aa4649ee4-attr-2-type" class="er entityLabel">string</text><rect height="21.33333396911621" width="69.67449188232422" y="45.33333396911621" x="35.9389762878418" class="er attributeBoxEven"></rect><text transform="translate(40.9389762878418,56.000000953674316)" style="dominant-baseline: middle; font-size: 10.2px;" y="0" x="0" id="text-entity-VORLESUNG-58cf745f-e845-5e30-980b-258aa4649ee4-attr-2-name" class="er entityLabel">Titel</text><rect height="21.33333396911621" width="21.68397045135498" y="45.33333396911621" x="105.61346817016602" class="er attributeBoxEven"></rect><text transform="translate(110.61346817016602,56.000000953674316)" style="dominant-baseline: middle; font-size: 10.2px;" y="0" x="0" id="text-entity-VORLESUNG-58cf745f-e845-5e30-980b-258aa4649ee4-attr-2-key" class="er entityLabel"></text><rect height="21.33333396911621" width="35.9389762878418" y="66.66666793823242" x="0" class="er attributeBoxOdd"></rect><text transform="translate(5,77.33333492279053)" style="dominant-baseline: middle; font-size: 10.2px;" y="0" x="0" id="text-entity-VORLESUNG-58cf745f-e845-5e30-980b-258aa4649ee4-attr-3-type" class="er entityLabel">int</text><rect height="21.33333396911621" width="69.67449188232422" y="66.66666793823242" x="35.9389762878418" class="er attributeBoxOdd"></rect><text transform="translate(40.9389762878418,77.33333492279053)" style="dominant-baseline: middle; font-size: 10.2px;" y="0" x="0" id="text-entity-VORLESUNG-58cf745f-e845-5e30-980b-258aa4649ee4-attr-3-name" class="er entityLabel">ProfID</text><rect height="21.33333396911621" width="21.68397045135498" y="66.66666793823242" x="105.61346817016602" class="er attributeBoxOdd"></rect><text transform="translate(110.61346817016602,77.33333492279053)" style="dominant-baseline: middle; font-size: 10.2px;" y="0" x="0" id="text-entity-VORLESUNG-58cf745f-e845-5e30-980b-258aa4649ee4-attr-3-key" class="er entityLabel">FK</text></g><g transform="translate(333.2350616455078,481.3333435058594 )" id="entity-STUDENT-1b2391c8-f2ba-530c-95a9-6a5256c98860"><rect height="109.33333587646484" width="133.78961849212646" y="0" x="0" class="er entityBox"></rect><text transform="translate(66.89480924606323,12)" style="dominant-baseline: middle; text-anchor: middle; font-size: 12px;" y="0" x="0" id="text-entity-STUDENT-1b2391c8-f2ba-530c-95a9-6a5256c98860" class="er entityLabel">STUDENT</text><rect height="21.33333396911621" width="35.9389762878418" y="24" x="0" class="er attributeBoxOdd"></rect><text transform="translate(5,34.666666984558105)" style="dominant-baseline: middle; font-size: 10.2px;" y="0" x="0" id="text-entity-STUDENT-1b2391c8-f2ba-530c-95a9-6a5256c98860-attr-1-type" class="er entityLabel">int</text><rect height="21.33333396911621" width="76.16667175292969" y="24" x="35.9389762878418" class="er attributeBoxOdd"></rect><text transform="translate(40.9389762878418,34.666666984558105)" style="dominant-baseline: middle; font-size: 10.2px;" y="0" x="0" id="text-entity-STUDENT-1b2391c8-f2ba-530c-95a9-6a5256c98860-attr-1-name" class="er entityLabel">MatrikelNr</text><rect height="21.33333396911621" width="21.68397045135498" y="24" x="112.10564804077148" class="er attributeBoxOdd"></rect><text transform="translate(117.10564804077148,34.666666984558105)" style="dominant-baseline: middle; font-size: 10.2px;" y="0" x="0" id="text-entity-STUDENT-1b2391c8-f2ba-530c-95a9-6a5256c98860-attr-1-key" class="er entityLabel">PK</text><rect height="21.33333396911621" width="35.9389762878418" y="45.33333396911621" x="0" class="er attributeBoxEven"></rect><text transform="translate(5,56.000000953674316)" style="dominant-baseline: middle; font-size: 10.2px;" y="0" x="0" id="text-entity-STUDENT-1b2391c8-f2ba-530c-95a9-6a5256c98860-attr-2-type" class="er entityLabel">string</text><rect height="21.33333396911621" width="76.16667175292969" y="45.33333396911621" x="35.9389762878418" class="er attributeBoxEven"></rect><text transform="translate(40.9389762878418,56.000000953674316)" style="dominant-baseline: middle; font-size: 10.2px;" y="0" x="0" id="text-entity-STUDENT-1b2391c8-f2ba-530c-95a9-6a5256c98860-attr-2-name" class="er entityLabel">Vorname</text><rect height="21.33333396911621" width="21.68397045135498" y="45.33333396911621" x="112.10564804077148" class="er attributeBoxEven"></rect><text transform="translate(117.10564804077148,56.000000953674316)" style="dominant-baseline: middle; font-size: 10.2px;" y="0" x="0" id="text-entity-STUDENT-1b2391c8-f2ba-530c-95a9-6a5256c98860-attr-2-key" class="er entityLabel"></text><rect height="21.33333396911621" width="35.9389762878418" y="66.66666793823242" x="0" class="er attributeBoxOdd"></rect><text transform="translate(5,77.33333492279053)" style="dominant-baseline: middle; font-size: 10.2px;" y="0" x="0" id="text-entity-STUDENT-1b2391c8-f2ba-530c-95a9-6a5256c98860-attr-3-type" class="er entityLabel">string</text><rect height="21.33333396911621" width="76.16667175292969" y="66.66666793823242" x="35.9389762878418" class="er attributeBoxOdd"></rect><text transform="translate(40.9389762878418,77.33333492279053)" style="dominant-baseline: middle; font-size: 10.2px;" y="0" x="0" id="text-entity-STUDENT-1b2391c8-f2ba-530c-95a9-6a5256c98860-attr-3-name" class="er entityLabel">Nachname</text><rect height="21.33333396911621" width="21.68397045135498" y="66.66666793823242" x="112.10564804077148" class="er attributeBoxOdd"></rect><text transform="translate(117.10564804077148,77.33333492279053)" style="dominant-baseline: middle; font-size: 10.2px;" y="0" x="0" id="text-entity-STUDENT-1b2391c8-f2ba-530c-95a9-6a5256c98860-attr-3-key" class="er entityLabel"></text><rect height="21.33333396911621" width="35.9389762878418" y="88.00000190734863" x="0" class="er attributeBoxEven"></rect><text transform="translate(5,98.66666889190674)" style="dominant-baseline: middle; font-size: 10.2px;" y="0" x="0" id="text-entity-STUDENT-1b2391c8-f2ba-530c-95a9-6a5256c98860-attr-4-type" class="er entityLabel">date</text><rect height="21.33333396911621" width="76.16667175292969" y="88.00000190734863" x="35.9389762878418" class="er attributeBoxEven"></rect><text transform="translate(40.9389762878418,98.66666889190674)" style="dominant-baseline: middle; font-size: 10.2px;" y="0" x="0" id="text-entity-STUDENT-1b2391c8-f2ba-530c-95a9-6a5256c98860-attr-4-name" class="er entityLabel">Eintrittsdatum</text><rect height="21.33333396911621" width="21.68397045135498" y="88.00000190734863" x="112.10564804077148" class="er attributeBoxEven"></rect><text transform="translate(117.10564804077148,98.66666889190674)" style="dominant-baseline: middle; font-size: 10.2px;" y="0" x="0" id="text-entity-STUDENT-1b2391c8-f2ba-530c-95a9-6a5256c98860-attr-4-key" class="er entityLabel"></text></g><g transform="translate(20.462875366210938,250.6666717529297 )" id="entity-ASSISTENT-e727ec2d-753f-5e30-9bc7-ed237deec8f5"><rect height="130.66666984558105" width="132.57086849212646" y="0" x="0" class="er entityBox"></rect><text transform="translate(66.28543424606323,12)" style="dominant-baseline: middle; text-anchor: middle; font-size: 12px;" y="0" x="0" id="text-entity-ASSISTENT-e727ec2d-753f-5e30-9bc7-ed237deec8f5" class="er entityLabel">ASSISTENT</text><rect height="21.33333396911621" width="35.9389762878418" y="24" x="0" class="er attributeBoxOdd"></rect><text transform="translate(5,34.666666984558105)" style="dominant-baseline: middle; font-size: 10.2px;" y="0" x="0" id="text-entity-ASSISTENT-e727ec2d-753f-5e30-9bc7-ed237deec8f5-attr-1-type" class="er entityLabel">int</text><rect height="21.33333396911621" width="74.94792175292969" y="24" x="35.9389762878418" class="er attributeBoxOdd"></rect><text transform="translate(40.9389762878418,34.666666984558105)" style="dominant-baseline: middle; font-size: 10.2px;" y="0" x="0" id="text-entity-ASSISTENT-e727ec2d-753f-5e30-9bc7-ed237deec8f5-attr-1-name" class="er entityLabel">AssistentID</text><rect height="21.33333396911621" width="21.68397045135498" y="24" x="110.88689804077148" class="er attributeBoxOdd"></rect><text transform="translate(115.88689804077148,34.666666984558105)" style="dominant-baseline: middle; font-size: 10.2px;" y="0" x="0" id="text-entity-ASSISTENT-e727ec2d-753f-5e30-9bc7-ed237deec8f5-attr-1-key" class="er entityLabel">PK</text><rect height="21.33333396911621" width="35.9389762878418" y="45.33333396911621" x="0" class="er attributeBoxEven"></rect><text transform="translate(5,56.000000953674316)" style="dominant-baseline: middle; font-size: 10.2px;" y="0" x="0" id="text-entity-ASSISTENT-e727ec2d-753f-5e30-9bc7-ed237deec8f5-attr-2-type" class="er entityLabel">string</text><rect height="21.33333396911621" width="74.94792175292969" y="45.33333396911621" x="35.9389762878418" class="er attributeBoxEven"></rect><text transform="translate(40.9389762878418,56.000000953674316)" style="dominant-baseline: middle; font-size: 10.2px;" y="0" x="0" id="text-entity-ASSISTENT-e727ec2d-753f-5e30-9bc7-ed237deec8f5-attr-2-name" class="er entityLabel">Vorname</text><rect height="21.33333396911621" width="21.68397045135498" y="45.33333396911621" x="110.88689804077148" class="er attributeBoxEven"></rect><text transform="translate(115.88689804077148,56.000000953674316)" style="dominant-baseline: middle; font-size: 10.2px;" y="0" x="0" id="text-entity-ASSISTENT-e727ec2d-753f-5e30-9bc7-ed237deec8f5-attr-2-key" class="er entityLabel"></text><rect height="21.33333396911621" width="35.9389762878418" y="66.66666793823242" x="0" class="er attributeBoxOdd"></rect><text transform="translate(5,77.33333492279053)" style="dominant-baseline: middle; font-size: 10.2px;" y="0" x="0" id="text-entity-ASSISTENT-e727ec2d-753f-5e30-9bc7-ed237deec8f5-attr-3-type" class="er entityLabel">string</text><rect height="21.33333396911621" width="74.94792175292969" y="66.66666793823242" x="35.9389762878418" class="er attributeBoxOdd"></rect><text transform="translate(40.9389762878418,77.33333492279053)" style="dominant-baseline: middle; font-size: 10.2px;" y="0" x="0" id="text-entity-ASSISTENT-e727ec2d-753f-5e30-9bc7-ed237deec8f5-attr-3-name" class="er entityLabel">Nachname</text><rect height="21.33333396911621" width="21.68397045135498" y="66.66666793823242" x="110.88689804077148" class="er attributeBoxOdd"></rect><text transform="translate(115.88689804077148,77.33333492279053)" style="dominant-baseline: middle; font-size: 10.2px;" y="0" x="0" id="text-entity-ASSISTENT-e727ec2d-753f-5e30-9bc7-ed237deec8f5-attr-3-key" class="er entityLabel"></text><rect height="21.33333396911621" width="35.9389762878418" y="88.00000190734863" x="0" class="er attributeBoxEven"></rect><text transform="translate(5,98.66666889190674)" style="dominant-baseline: middle; font-size: 10.2px;" y="0" x="0" id="text-entity-ASSISTENT-e727ec2d-753f-5e30-9bc7-ed237deec8f5-attr-4-type" class="er entityLabel">date</text><rect height="21.33333396911621" width="74.94792175292969" y="88.00000190734863" x="35.9389762878418" class="er attributeBoxEven"></rect><text transform="translate(40.9389762878418,98.66666889190674)" style="dominant-baseline: middle; font-size: 10.2px;" y="0" x="0" id="text-entity-ASSISTENT-e727ec2d-753f-5e30-9bc7-ed237deec8f5-attr-4-name" class="er entityLabel">Geburtsdatum</text><rect height="21.33333396911621" width="21.68397045135498" y="88.00000190734863" x="110.88689804077148" class="er attributeBoxEven"></rect><text transform="translate(115.88689804077148,98.66666889190674)" style="dominant-baseline: middle; font-size: 10.2px;" y="0" x="0" id="text-entity-ASSISTENT-e727ec2d-753f-5e30-9bc7-ed237deec8f5-attr-4-key" class="er entityLabel"></text><rect height="21.33333396911621" width="35.9389762878418" y="109.33333587646484" x="0" class="er attributeBoxOdd"></rect><text transform="translate(5,120.00000286102295)" style="dominant-baseline: middle; font-size: 10.2px;" y="0" x="0" id="text-entity-ASSISTENT-e727ec2d-753f-5e30-9bc7-ed237deec8f5-attr-5-type" class="er entityLabel">int</text><rect height="21.33333396911621" width="74.94792175292969" y="109.33333587646484" x="35.9389762878418" class="er attributeBoxOdd"></rect><text transform="translate(40.9389762878418,120.00000286102295)" style="dominant-baseline: middle; font-size: 10.2px;" y="0" x="0" id="text-entity-ASSISTENT-e727ec2d-753f-5e30-9bc7-ed237deec8f5-attr-5-name" class="er entityLabel">ProfID</text><rect height="21.33333396911621" width="21.68397045135498" y="109.33333587646484" x="110.88689804077148" class="er attributeBoxOdd"></rect><text transform="translate(115.88689804077148,120.00000286102295)" style="dominant-baseline: middle; font-size: 10.2px;" y="0" x="0" id="text-entity-ASSISTENT-e727ec2d-753f-5e30-9bc7-ed237deec8f5-attr-5-key" class="er entityLabel">FK</text></g><g transform="translate(99.72234535217285,690.6666793823242 )" id="entity-PRUEFUNG-56fe6b08-8f56-5fbb-95f2-cf97471b4b5a"><rect height="152.00000381469727" width="137.7006483078003" y="0" x="0" class="er entityBox"></rect><text transform="translate(68.85032415390015,12)" style="dominant-baseline: middle; text-anchor: middle; font-size: 12px;" y="0" x="0" id="text-entity-PRUEFUNG-56fe6b08-8f56-5fbb-95f2-cf97471b4b5a" class="er entityLabel">PRUEFUNG</text><rect height="21.33333396911621" width="46.342185974121094" y="24" x="0" class="er attributeBoxOdd"></rect><text transform="translate(5,34.666666984558105)" style="dominant-baseline: middle; font-size: 10.2px;" y="0" x="0" id="text-entity-PRUEFUNG-56fe6b08-8f56-5fbb-95f2-cf97471b4b5a-attr-1-type" class="er entityLabel">int</text><rect height="21.33333396911621" width="69.67449188232422" y="24" x="46.342185974121094" class="er attributeBoxOdd"></rect><text transform="translate(51.342185974121094,34.666666984558105)" style="dominant-baseline: middle; font-size: 10.2px;" y="0" x="0" id="text-entity-PRUEFUNG-56fe6b08-8f56-5fbb-95f2-cf97471b4b5a-attr-1-name" class="er entityLabel">PruefungsID</text><rect height="21.33333396911621" width="21.68397045135498" y="24" x="116.01667785644531" class="er attributeBoxOdd"></rect><text transform="translate(121.01667785644531,34.666666984558105)" style="dominant-baseline: middle; font-size: 10.2px;" y="0" x="0" id="text-entity-PRUEFUNG-56fe6b08-8f56-5fbb-95f2-cf97471b4b5a-attr-1-key" class="er entityLabel">PK</text><rect height="21.33333396911621" width="46.342185974121094" y="45.33333396911621" x="0" class="er attributeBoxEven"></rect><text transform="translate(5,56.000000953674316)" style="dominant-baseline: middle; font-size: 10.2px;" y="0" x="0" id="text-entity-PRUEFUNG-56fe6b08-8f56-5fbb-95f2-cf97471b4b5a-attr-2-type" class="er entityLabel">int</text><rect height="21.33333396911621" width="69.67449188232422" y="45.33333396911621" x="46.342185974121094" class="er attributeBoxEven"></rect><text transform="translate(51.342185974121094,56.000000953674316)" style="dominant-baseline: middle; font-size: 10.2px;" y="0" x="0" id="text-entity-PRUEFUNG-56fe6b08-8f56-5fbb-95f2-cf97471b4b5a-attr-2-name" class="er entityLabel">VorlesungsNr</text><rect height="21.33333396911621" width="21.68397045135498" y="45.33333396911621" x="116.01667785644531" class="er attributeBoxEven"></rect><text transform="translate(121.01667785644531,56.000000953674316)" style="dominant-baseline: middle; font-size: 10.2px;" y="0" x="0" id="text-entity-PRUEFUNG-56fe6b08-8f56-5fbb-95f2-cf97471b4b5a-attr-2-key" class="er entityLabel">FK</text><rect height="21.33333396911621" width="46.342185974121094" y="66.66666793823242" x="0" class="er attributeBoxOdd"></rect><text transform="translate(5,77.33333492279053)" style="dominant-baseline: middle; font-size: 10.2px;" y="0" x="0" id="text-entity-PRUEFUNG-56fe6b08-8f56-5fbb-95f2-cf97471b4b5a-attr-3-type" class="er entityLabel">int</text><rect height="21.33333396911621" width="69.67449188232422" y="66.66666793823242" x="46.342185974121094" class="er attributeBoxOdd"></rect><text transform="translate(51.342185974121094,77.33333492279053)" style="dominant-baseline: middle; font-size: 10.2px;" y="0" x="0" id="text-entity-PRUEFUNG-56fe6b08-8f56-5fbb-95f2-cf97471b4b5a-attr-3-name" class="er entityLabel">MatrikelNr</text><rect height="21.33333396911621" width="21.68397045135498" y="66.66666793823242" x="116.01667785644531" class="er attributeBoxOdd"></rect><text transform="translate(121.01667785644531,77.33333492279053)" style="dominant-baseline: middle; font-size: 10.2px;" y="0" x="0" id="text-entity-PRUEFUNG-56fe6b08-8f56-5fbb-95f2-cf97471b4b5a-attr-3-key" class="er entityLabel">FK</text><rect height="21.33333396911621" width="46.342185974121094" y="88.00000190734863" x="0" class="er attributeBoxEven"></rect><text transform="translate(5,98.66666889190674)" style="dominant-baseline: middle; font-size: 10.2px;" y="0" x="0" id="text-entity-PRUEFUNG-56fe6b08-8f56-5fbb-95f2-cf97471b4b5a-attr-4-type" class="er entityLabel">int</text><rect height="21.33333396911621" width="69.67449188232422" y="88.00000190734863" x="46.342185974121094" class="er attributeBoxEven"></rect><text transform="translate(51.342185974121094,98.66666889190674)" style="dominant-baseline: middle; font-size: 10.2px;" y="0" x="0" id="text-entity-PRUEFUNG-56fe6b08-8f56-5fbb-95f2-cf97471b4b5a-attr-4-name" class="er entityLabel">ProfID</text><rect height="21.33333396911621" width="21.68397045135498" y="88.00000190734863" x="116.01667785644531" class="er attributeBoxEven"></rect><text transform="translate(121.01667785644531,98.66666889190674)" style="dominant-baseline: middle; font-size: 10.2px;" y="0" x="0" id="text-entity-PRUEFUNG-56fe6b08-8f56-5fbb-95f2-cf97471b4b5a-attr-4-key" class="er entityLabel">FK</text><rect height="21.33333396911621" width="46.342185974121094" y="109.33333587646484" x="0" class="er attributeBoxOdd"></rect><text transform="translate(5,120.00000286102295)" style="dominant-baseline: middle; font-size: 10.2px;" y="0" x="0" id="text-entity-PRUEFUNG-56fe6b08-8f56-5fbb-95f2-cf97471b4b5a-attr-5-type" class="er entityLabel">date</text><rect height="21.33333396911621" width="69.67449188232422" y="109.33333587646484" x="46.342185974121094" class="er attributeBoxOdd"></rect><text transform="translate(51.342185974121094,120.00000286102295)" style="dominant-baseline: middle; font-size: 10.2px;" y="0" x="0" id="text-entity-PRUEFUNG-56fe6b08-8f56-5fbb-95f2-cf97471b4b5a-attr-5-name" class="er entityLabel">Termin</text><rect height="21.33333396911621" width="21.68397045135498" y="109.33333587646484" x="116.01667785644531" class="er attributeBoxOdd"></rect><text transform="translate(121.01667785644531,120.00000286102295)" style="dominant-baseline: middle; font-size: 10.2px;" y="0" x="0" id="text-entity-PRUEFUNG-56fe6b08-8f56-5fbb-95f2-cf97471b4b5a-attr-5-key" class="er entityLabel"></text><rect height="21.33333396911621" width="46.342185974121094" y="130.66666984558105" x="0" class="er attributeBoxEven"></rect><text transform="translate(5,141.33333683013916)" style="dominant-baseline: middle; font-size: 10.2px;" y="0" x="0" id="text-entity-PRUEFUNG-56fe6b08-8f56-5fbb-95f2-cf97471b4b5a-attr-6-type" class="er entityLabel">decimal</text><rect height="21.33333396911621" width="69.67449188232422" y="130.66666984558105" x="46.342185974121094" class="er attributeBoxEven"></rect><text transform="translate(51.342185974121094,141.33333683013916)" style="dominant-baseline: middle; font-size: 10.2px;" y="0" x="0" id="text-entity-PRUEFUNG-56fe6b08-8f56-5fbb-95f2-cf97471b4b5a-attr-6-name" class="er entityLabel">Note</text><rect height="21.33333396911621" width="21.68397045135498" y="130.66666984558105" x="116.01667785644531" class="er attributeBoxEven"></rect><text transform="translate(121.01667785644531,141.33333683013916)" style="dominant-baseline: middle; font-size: 10.2px;" y="0" x="0" id="text-entity-PRUEFUNG-56fe6b08-8f56-5fbb-95f2-cf97471b4b5a-attr-6-key" class="er entityLabel"></text></g><rect height="14" width="21.73372459411621" y="168.63833618164062" x="247.89796924591064" class="er relationshipLabelBox"></rect><text style="text-anchor: middle; dominant-baseline: middle; font-size: 12px;" y="175.63833618164062" x="258.76483154296875" id="rel1" class="er relationshipLabel">hält</text><rect height="14" width="60.862632751464844" y="193.66700744628906" x="56.31668472290039" class="er relationshipLabelBox"></rect><text style="text-anchor: middle; dominant-baseline: middle; font-size: 12px;" y="200.66700744628906" x="86.74800109863281" id="rel2" class="er relationshipLabel">beschäftigt</text><rect height="14" width="70.84114837646484" y="450.2622985839844" x="-114.95757675170898" class="er relationshipLabelBox"></rect><text style="text-anchor: middle; dominant-baseline: middle; font-size: 12px;" y="457.2622985839844" x="-79.53700256347656" id="rel3" class="er relationshipLabel">beaufsichtigt</text><rect height="14" width="18.19466209411621" y="501.0738525390625" x="159.76935291290283" class="er relationshipLabelBox"></rect><text style="text-anchor: middle; dominant-baseline: middle; font-size: 12px;" y="508.0738525390625" x="168.86668395996094" id="rel4" class="er relationshipLabel">hat</text><rect height="14" width="112.68294525146484" y="309.0000305175781" x="423.1565132141113" class="er relationshipLabelBox"></rect><text style="text-anchor: middle; dominant-baseline: middle; font-size: 12px;" y="316.0000305175781" x="479.49798583984375" id="rel5" class="er relationshipLabel">ist Voraussetzung für</text><rect height="14" width="92.48177337646484" y="409.2022705078125" x="339.69316482543945" class="er relationshipLabelBox"></rect><text style="text-anchor: middle; dominant-baseline: middle; font-size: 12px;" y="416.2022705078125" x="385.9340515136719" id="rel6" class="er relationshipLabel">wird besucht von</text><rect height="14" width="44.005210876464844" y="666.9769287109375" x="313.0048408508301" class="er relationshipLabelBox"></rect><text style="text-anchor: middle; dominant-baseline: middle; font-size: 12px;" y="673.9769287109375" x="335.0074462890625" id="rel7" class="er relationshipLabel">schreibt</text></svg>